<svg width="100%" height="100%" viewBox="0 0 401 401" fill="none" xmlns="http://www.w3.org/2000/svg">
<circle cx="200.332" cy="200.606" r="196" fill="#E3F3E9" stroke="#121212" stroke-width="8"/>
<path d="M293.329 257.299C312.987 284.092 323.138 302.86 337.201 333.952C338.652 337.158 337.821 340.943 335.168 343.254L318.36 357.893C314.387 361.354 308.211 360.095 305.909 355.354L236.963 213.333C234.527 208.316 237.843 202.409 243.394 201.875L298.544 196.573C304.535 195.997 306.765 204.221 301.304 206.75C296.485 208.982 297.513 216.113 302.765 216.893L307.21 217.554C312.557 218.349 314.804 224.828 311.097 228.763L293.93 246.987C291.261 249.819 291.027 254.162 293.329 257.299Z" fill="#121213" fill-opacity="0.1"/>
<path d="M108.64 142.673L88.0611 100.478L101.537 136.616L108.64 142.673Z" fill="#121212"/>
<path d="M111.781 118.042L93.4856 68.1626L104.472 112.216L111.781 118.042Z" fill="#121212"/>
<path d="M80.3127 267.332C67.3544 284.002 36.6279 303.983 36.6279 303.983C44.5424 316.863 53.9343 328.738 64.5677 339.371C83.2013 307.646 97.6347 287.367 120.142 262.417L111 264.472C105.173 265.781 100.025 260.493 101.537 254.716C105.477 239.659 112.005 215.253 115.488 205.176C120.697 190.111 99.5098 151.111 99.5098 151.111C103.399 165.846 107.468 185.97 105.926 201.469C103.195 228.931 97.2505 245.544 80.3127 267.332Z" fill="#121212"/>
<path d="M296.141 226.046C297.206 224.817 287.242 223.445 276.047 221.399C267.877 219.906 259.052 218.053 253.38 215.634C264.141 213.839 273.636 211.953 281.975 210.067C311.956 203.287 327.003 196.497 332.298 193.846C293.674 206.011 271.503 211.382 233.487 215.307C233.301 215.747 233.115 216.192 232.929 216.642C257.556 223.27 271.417 225.158 296.141 226.046Z" fill="#121212"/>
<path d="M253.38 215.634C259.052 218.053 267.877 219.906 276.047 221.399C271.033 216.565 271.93 214.059 281.975 210.067C273.636 211.953 264.141 213.839 253.38 215.634Z" fill="#121212"/>
<path d="M254.95 261.8L230.254 215.634C230.254 215.634 248.224 178.904 264.394 164.864C255.161 165.245 233.633 165.708 219.537 162.64C219.159 162.558 218.785 162.485 218.415 162.422C217.579 162.279 217.024 163.221 217.446 163.957C219.294 167.178 220.351 170.911 220.351 174.891C220.351 187.043 210.501 196.895 198.351 196.895V196.895C197.926 196.895 197.664 197.369 197.913 197.712C201.696 202.903 207.293 206.736 212.786 207.987C221.483 209.967 221.483 216.642 221.483 216.642C225.299 233.427 226.097 243.516 221.483 264.515C241.017 272.373 254.438 273.549 280.728 272.511L268.933 253.267C268.049 253.082 267.189 252.886 266.352 252.679L254.95 261.8Z" fill="#121212"/>
<path d="M268.933 178.775L262.726 173.188L268.851 164.642C268.851 164.642 267.184 164.749 264.394 164.864C248.224 178.904 230.254 215.634 230.254 215.634C231.345 215.526 232.422 215.417 233.487 215.307C241.99 195.148 249.15 186.082 268.933 178.775Z" fill="#121212"/>
<path d="M230.254 215.634L254.95 261.8L266.352 252.679C250.522 248.76 242.767 240.692 232.929 216.642C233.115 216.192 233.301 215.747 233.487 215.307C232.422 215.417 231.345 215.526 230.254 215.634Z" fill="#121212"/>
<path d="M88.0611 100.478L108.64 142.673L101.537 136.616L85.3008 123.711C85.3008 123.711 96.4416 139.486 99.5098 151.111C99.5098 151.111 120.697 190.111 115.488 205.176C112.005 215.253 105.477 239.659 101.537 254.716C100.025 260.493 105.173 265.781 111 264.472L120.142 262.417C97.6347 287.367 83.2013 307.646 64.5677 339.371C73.4833 348.287 83.2717 356.33 93.7937 363.361C124.277 383.73 160.918 395.607 200.332 395.607C246.182 395.607 288.279 379.535 321.296 352.718C309.315 323.003 298.664 301.493 280.728 272.511C254.438 273.549 241.017 272.373 221.483 264.515C226.097 243.516 225.299 233.427 221.483 216.642C221.483 216.642 221.483 209.967 212.786 207.987C207.293 206.736 201.696 202.903 197.913 197.712C197.664 197.369 197.926 196.895 198.351 196.895V196.895C210.501 196.895 220.351 187.043 220.351 174.891C220.351 170.911 219.294 167.178 217.446 163.957C217.024 163.221 217.579 162.279 218.415 162.422C218.785 162.485 219.159 162.558 219.537 162.64C233.633 165.708 255.161 165.245 264.394 164.864C267.058 162.551 269.673 160.854 272.15 160.039L274.976 156.096C274.976 156.096 256.609 129.531 219.537 120.749C182.464 111.967 93.4856 68.1626 93.4856 68.1626L111.781 118.042L104.472 112.216L88.0611 100.478Z" fill="#F5351E"/>
<path d="M266.352 252.679L296.141 226.046C271.417 225.158 257.556 223.27 232.929 216.642C242.767 240.692 250.522 248.76 266.352 252.679Z" fill="#FD9D6A"/>
<path d="M332.298 193.846C332.298 193.846 293.589 160.114 276.047 158.821C274.848 158.732 273.436 159.616 272.15 160.039L268.851 164.642L262.726 173.188L268.933 178.775C249.15 186.082 241.99 195.148 233.487 215.307C271.503 211.382 293.674 206.011 332.298 193.846Z" fill="#FD9D6A"/>
<path d="M332.298 193.846L333.642 196.528L337.644 194.524L334.269 191.584L332.298 193.846ZM276.047 158.821L275.827 161.812L275.827 161.812L276.047 158.821ZM230.254 215.634L227.559 214.316L226.884 215.695L227.609 217.049L230.254 215.634ZM254.95 261.8L252.305 263.215L254.007 266.396L256.824 264.142L254.95 261.8ZM296.141 226.046L298.141 228.283L298.284 228.155L298.409 228.011L296.141 226.046ZM253.38 215.634L252.886 212.675L242.756 214.365L252.203 218.394L253.38 215.634ZM36.6279 303.983L34.9925 301.468C33.6285 302.354 33.2201 304.167 34.0719 305.553L36.6279 303.983ZM80.3127 267.332L77.9442 265.491L80.3127 267.332ZM105.926 201.469L108.912 201.766L105.926 201.469ZM85.3008 123.711L87.1675 121.363C85.999 120.434 84.3254 120.505 83.2404 121.53C82.1555 122.556 81.9892 124.222 82.8503 125.442L85.3008 123.711ZM108.64 142.673L106.693 144.956C107.774 145.877 109.354 145.914 110.477 145.044C111.6 144.174 111.959 142.635 111.336 141.358L108.64 142.673ZM88.0611 100.478L89.8064 98.038C88.7334 97.2706 87.2849 97.2942 86.2374 98.0961C85.1899 98.8981 84.7893 100.29 85.2502 101.526L88.0611 100.478ZM111.781 118.042L109.911 120.388C110.963 121.226 112.444 121.262 113.536 120.475C114.627 119.688 115.061 118.271 114.598 117.009L111.781 118.042ZM93.4856 68.1626L94.8106 65.4711C93.7628 64.9552 92.5108 65.0944 91.6018 65.8277C90.6929 66.5611 90.2921 67.7553 90.5747 68.8885L93.4856 68.1626ZM274.976 156.096L277.414 157.844C278.152 156.814 278.164 155.432 277.444 154.39L274.976 156.096ZM262.726 173.188L260.287 171.44C259.397 172.682 259.583 174.395 260.719 175.418L262.726 173.188ZM268.933 178.775L269.973 181.589C270.958 181.225 271.682 180.372 271.88 179.34C272.078 178.308 271.721 177.248 270.94 176.545L268.933 178.775ZM232.929 216.642L230.158 215.492C229.854 216.223 229.852 217.045 230.152 217.778L232.929 216.642ZM268.933 253.267L271.491 251.7C271.06 250.996 270.358 250.501 269.55 250.332L268.933 253.267ZM321.296 352.718L323.187 355.047C324.209 354.217 324.57 352.817 324.078 351.596L321.296 352.718ZM120.142 262.417L122.37 264.427C123.245 263.456 123.392 262.031 122.732 260.903C122.073 259.775 120.759 259.204 119.484 259.49L120.142 262.417ZM115.488 205.176L112.653 204.196L112.653 204.196L115.488 205.176ZM219.537 162.64L220.175 159.708L220.175 159.708L219.537 162.64ZM212.786 207.987L212.12 210.912L212.786 207.987ZM221.483 216.642H218.483C218.483 216.866 218.508 217.089 218.558 217.307L221.483 216.642ZM221.483 264.515L218.553 263.871C218.238 265.303 219.004 266.752 220.363 267.298L221.483 264.515ZM93.7937 363.361L95.4605 360.866L93.7937 363.361ZM111 264.472L110.342 261.545L110.342 261.545L111 264.472ZM101.537 254.716L98.6347 253.956L101.537 254.716ZM276.047 221.399L275.508 224.35L275.508 224.35L276.047 221.399ZM217.446 163.957L220.049 162.464L217.446 163.957ZM218.415 162.422L217.91 165.379L218.415 162.422ZM197.913 197.712L200.338 195.945L197.913 197.712ZM332.298 193.846C334.269 191.584 334.269 191.584 334.269 191.583C334.268 191.583 334.267 191.582 334.267 191.582C334.265 191.58 334.263 191.578 334.261 191.576C334.255 191.571 334.248 191.565 334.238 191.556C334.218 191.539 334.189 191.514 334.15 191.481C334.074 191.414 333.962 191.317 333.815 191.191C333.522 190.939 333.092 190.571 332.539 190.104C331.434 189.169 329.839 187.834 327.872 186.23C323.939 183.023 318.505 178.729 312.51 174.388C306.525 170.054 299.929 165.637 293.68 162.209C287.534 158.837 281.341 156.203 276.268 155.829L275.827 161.812C279.524 162.085 284.748 164.152 290.794 167.469C296.736 170.729 303.107 174.987 308.992 179.248C314.867 183.502 320.206 187.721 324.08 190.88C326.016 192.458 327.582 193.769 328.663 194.684C329.203 195.141 329.622 195.499 329.904 195.742C330.045 195.863 330.152 195.955 330.223 196.017C330.259 196.048 330.286 196.071 330.303 196.086C330.312 196.094 330.318 196.099 330.322 196.103C330.324 196.105 330.326 196.106 330.327 196.107C330.327 196.107 330.327 196.107 330.328 196.107C330.328 196.107 330.328 196.107 332.298 193.846ZM227.609 217.049L252.305 263.215L257.595 260.385L232.899 214.219L227.609 217.049ZM36.6279 303.983C38.2634 306.498 38.2637 306.497 38.2642 306.497C38.2645 306.497 38.2651 306.496 38.2657 306.496C38.2669 306.495 38.2687 306.494 38.2708 306.493C38.2752 306.49 38.2814 306.486 38.2894 306.481C38.3055 306.47 38.3289 306.455 38.3595 306.435C38.4206 306.395 38.5103 306.336 38.6271 306.259C38.8607 306.105 39.2028 305.878 39.6414 305.585C40.5187 304.998 41.7827 304.144 43.3386 303.067C46.449 300.914 50.7328 297.869 55.4278 294.296C64.7481 287.203 75.9438 277.841 82.6813 269.174L77.9442 265.491C71.7234 273.494 61.0766 282.457 51.7941 289.521C47.1877 293.027 42.9799 296.019 39.9242 298.133C38.397 299.19 37.1594 300.027 36.3056 300.598C35.8788 300.883 35.5481 301.102 35.3252 301.249C35.2138 301.323 35.1294 301.378 35.0735 301.415C35.0455 301.433 35.0246 301.447 35.0111 301.455C35.0043 301.46 34.9993 301.463 34.9962 301.465C34.9947 301.466 34.9936 301.467 34.993 301.467C34.9927 301.467 34.9925 301.467 34.9924 301.468C34.9924 301.468 34.9925 301.468 36.6279 303.983ZM82.6813 269.174C91.2782 258.115 97.171 248.257 101.249 237.6C105.322 226.954 107.531 215.648 108.912 201.766L102.941 201.172C101.59 214.752 99.4606 225.484 95.6449 235.456C91.8331 245.418 86.2851 254.762 77.9442 265.491L82.6813 269.174ZM111.336 141.358L90.7576 99.1631L85.3647 101.793L105.943 143.988L111.336 141.358ZM114.598 117.009L96.3021 67.1295L90.6691 69.1957L108.965 119.075L114.598 117.009ZM93.4856 68.1626C92.1605 70.8541 92.161 70.8543 92.1618 70.8547C92.1625 70.8551 92.1636 70.8556 92.165 70.8563C92.1679 70.8577 92.1721 70.8598 92.1777 70.8625C92.1888 70.868 92.2052 70.8761 92.227 70.8868C92.2705 70.9082 92.3352 70.94 92.4206 70.9819C92.5914 71.0656 92.8447 71.1898 93.1764 71.3519C93.8399 71.6762 94.8166 72.1524 96.0723 72.7614C98.5836 73.9792 102.211 75.7279 106.679 77.8534C115.614 82.104 127.916 87.8641 141.382 93.9003C168.21 105.927 199.984 119.201 218.845 123.668L220.228 117.83C202.017 113.516 170.765 100.497 143.836 88.4252C130.423 82.4125 118.164 76.6725 109.257 72.4353C104.804 70.3169 101.19 68.5747 98.6903 67.3626C97.4405 66.7566 96.4694 66.2831 95.8114 65.9615C95.4823 65.8006 95.2315 65.6777 95.0633 65.5952C94.9792 65.5539 94.9157 65.5228 94.8734 65.502C94.8523 65.4916 94.8364 65.4838 94.8259 65.4786C94.8207 65.476 94.8168 65.4741 94.8142 65.4729C94.813 65.4722 94.8121 65.4718 94.8114 65.4715C94.8109 65.4712 94.8106 65.4711 93.4856 68.1626ZM218.845 123.668C236.822 127.927 250.271 136.498 259.23 144.014C263.709 147.771 267.054 151.255 269.27 153.785C270.377 155.049 271.201 156.073 271.741 156.772C272.011 157.121 272.21 157.389 272.338 157.564C272.402 157.652 272.448 157.717 272.476 157.757C272.491 157.777 272.5 157.791 272.506 157.798C272.508 157.802 272.51 157.805 272.51 157.805C272.511 157.806 272.511 157.805 272.51 157.805C272.51 157.805 272.51 157.804 272.51 157.804C272.509 157.803 272.508 157.802 274.976 156.096C277.444 154.39 277.443 154.389 277.442 154.388C277.442 154.387 277.441 154.386 277.44 154.385C277.439 154.383 277.437 154.381 277.435 154.378C277.431 154.372 277.426 154.365 277.42 154.356C277.407 154.338 277.39 154.313 277.368 154.283C277.325 154.222 277.264 154.136 277.184 154.027C277.025 153.809 276.793 153.497 276.488 153.103C275.879 152.315 274.978 151.195 273.784 149.832C271.397 147.106 267.834 143.4 263.086 139.417C253.595 131.455 239.323 122.353 220.228 117.83L218.845 123.668ZM260.719 175.418L266.926 181.005L270.94 176.545L264.732 170.958L260.719 175.418ZM266.376 254.835L278.17 274.079L283.286 270.944L271.491 251.7L266.376 254.835ZM278.177 274.09C296.019 302.918 306.594 324.275 318.513 353.84L324.078 351.596C312.037 321.731 301.31 300.067 283.279 270.933L278.177 274.09ZM67.1545 340.89C85.7033 309.309 100.02 289.202 122.37 264.427L117.915 260.408C95.2492 285.533 80.6994 305.982 61.9809 337.852L67.1545 340.89ZM119.484 259.49L110.342 261.545L111.658 267.399L120.8 265.344L119.484 259.49ZM104.439 255.476C108.393 240.369 114.887 216.098 118.324 206.156L112.653 204.196C109.123 214.408 102.562 238.948 98.6347 253.956L104.439 255.476ZM108.912 201.766C110.511 185.687 106.307 165.108 102.411 150.345L96.6092 151.876C100.491 166.584 104.425 186.253 102.941 201.172L108.912 201.766ZM102.411 150.345C100.766 144.113 97.0332 136.968 93.8418 131.533C92.2258 128.78 90.7091 126.401 89.5958 124.709C89.0386 123.862 88.5813 123.185 88.2615 122.718C88.1016 122.484 87.976 122.302 87.8894 122.178C87.8461 122.116 87.8125 122.068 87.7893 122.035C87.7777 122.018 87.7687 122.005 87.7623 121.996C87.7591 121.992 87.7566 121.988 87.7548 121.985C87.7539 121.984 87.7531 121.983 87.7525 121.982C87.7522 121.982 87.7519 121.981 87.7518 121.981C87.7515 121.981 87.7513 121.98 85.3008 123.711C82.8503 125.442 82.8502 125.442 82.8501 125.441C82.8501 125.441 82.85 125.441 82.8501 125.441C82.8502 125.442 82.8504 125.442 82.8509 125.443C82.8517 125.444 82.8533 125.446 82.8554 125.449C82.8598 125.455 82.8668 125.465 82.8764 125.479C82.8955 125.506 82.9249 125.548 82.9639 125.604C83.042 125.717 83.1588 125.885 83.3095 126.106C83.6109 126.546 84.048 127.193 84.5832 128.006C85.6547 129.635 87.1149 131.926 88.6677 134.57C91.8137 139.929 95.1857 146.483 96.6092 151.876L102.411 150.345ZM118.324 206.156C119.91 201.569 119.397 195.616 118.121 189.736C116.817 183.733 114.591 177.274 112.238 171.381C109.879 165.474 107.36 160.057 105.433 156.121C104.469 154.151 103.651 152.547 103.072 151.433C102.783 150.876 102.553 150.441 102.395 150.144C102.316 149.995 102.255 149.88 102.213 149.802C102.192 149.763 102.175 149.733 102.164 149.713C102.159 149.702 102.154 149.694 102.151 149.689C102.15 149.686 102.149 149.684 102.148 149.682C102.147 149.681 102.147 149.68 102.147 149.68C102.146 149.679 102.146 149.679 99.5098 151.111C96.8737 152.543 96.8736 152.543 96.8736 152.543C96.8737 152.543 96.8737 152.543 96.8739 152.543C96.8743 152.544 96.875 152.545 96.8761 152.547C96.8781 152.551 96.8815 152.557 96.886 152.566C96.8952 152.583 96.9093 152.609 96.9283 152.644C96.9661 152.714 97.0231 152.821 97.0979 152.961C97.2475 153.243 97.4679 153.66 97.7477 154.199C98.3074 155.276 99.1037 156.837 100.044 158.759C101.928 162.607 104.38 167.881 106.666 173.607C108.959 179.348 111.053 185.463 112.257 191.009C113.488 196.679 113.671 201.25 112.653 204.196L118.324 206.156ZM266.413 162.894L260.287 171.44L265.164 174.936L271.289 166.39L266.413 162.894ZM212.12 210.912C215.658 211.718 217.121 213.365 217.787 214.537C218.147 215.172 218.324 215.761 218.409 216.176C218.452 216.382 218.471 216.537 218.478 216.624C218.482 216.666 218.484 216.691 218.484 216.695C218.484 216.697 218.484 216.694 218.483 216.685C218.483 216.681 218.483 216.675 218.483 216.668C218.483 216.664 218.483 216.66 218.483 216.656C218.483 216.654 218.483 216.652 218.483 216.649C218.483 216.648 218.483 216.646 218.483 216.646C218.483 216.644 218.483 216.642 221.483 216.642C224.483 216.642 224.483 216.64 224.483 216.638C224.483 216.637 224.483 216.635 224.483 216.634C224.483 216.631 224.483 216.628 224.483 216.625C224.483 216.619 224.483 216.613 224.483 216.606C224.483 216.592 224.482 216.577 224.482 216.56C224.481 216.526 224.48 216.485 224.478 216.438C224.474 216.343 224.467 216.222 224.454 216.079C224.428 215.793 224.378 215.411 224.285 214.96C224.099 214.061 223.732 212.858 223.005 211.577C221.497 208.917 218.611 206.237 213.453 205.062L212.12 210.912ZM218.558 217.307C220.448 225.623 221.549 232.104 221.644 239.039C221.74 245.975 220.831 253.503 218.553 263.871L224.413 265.159C226.749 254.528 227.748 246.512 227.644 238.957C227.54 231.402 226.334 224.447 224.408 215.977L218.558 217.307ZM220.363 267.298C240.446 275.377 254.341 276.555 280.846 275.509L280.61 269.514C254.535 270.543 241.588 269.369 222.603 261.732L220.363 267.298ZM86.3159 102.918L102.727 114.656L106.217 109.776L89.8064 98.038L86.3159 102.918ZM102.602 114.562L109.911 120.388L113.651 115.696L106.342 109.87L102.602 114.562ZM90.5747 68.8885L101.561 112.942L107.383 111.49L96.3964 67.4367L90.5747 68.8885ZM83.4341 126.06L99.6703 138.965L103.404 134.268L87.1675 121.363L83.4341 126.06ZM99.5905 138.899L106.693 144.956L110.586 140.39L103.483 134.334L99.5905 138.899ZM85.2502 101.526L98.726 137.665L104.348 135.568L90.8721 99.43L85.2502 101.526ZM62.4392 341.485C62.4486 341.495 62.456 341.502 62.4617 341.508C62.4676 341.514 62.4711 341.517 62.473 341.519C62.474 341.52 62.4739 341.52 62.4731 341.519C62.4726 341.519 62.4716 341.518 62.4701 341.516C62.4693 341.515 62.4682 341.514 62.4668 341.513C62.4655 341.512 62.4635 341.51 62.4611 341.507C62.4589 341.505 62.4547 341.5 62.4493 341.495C62.4466 341.492 62.4426 341.488 62.4377 341.483C62.4356 341.48 62.431 341.476 62.4285 341.473C62.4255 341.47 62.4187 341.463 62.415 341.459C62.4103 341.453 62.3994 341.442 62.3933 341.435C62.3849 341.426 62.3645 341.403 62.3526 341.389C62.3337 341.368 62.2817 341.305 62.2491 341.264C62.1735 341.163 61.8118 340.492 61.6478 339.876C62.7026 337.102 65.9908 336.752 66.3314 336.957C66.4133 337.017 66.5284 337.108 66.5631 337.137C66.5827 337.154 66.6146 337.182 66.6269 337.193C66.6356 337.201 66.6504 337.215 66.6567 337.22C66.6615 337.225 66.6701 337.233 66.6739 337.237C66.6769 337.24 66.6825 337.245 66.6851 337.247C66.6909 337.253 66.6956 337.257 66.6987 337.26C66.7048 337.266 66.7095 337.271 66.7119 337.273C66.7146 337.276 66.7168 337.278 66.7182 337.279C66.7197 337.281 66.7209 337.282 66.7217 337.283C66.7234 337.285 66.7246 337.286 66.7251 337.286C66.7257 337.287 66.7261 337.287 66.7262 337.287C66.7264 337.288 66.7261 337.287 66.7253 337.286C66.7236 337.285 66.721 337.282 66.7175 337.279C66.7106 337.272 66.7017 337.263 66.6925 337.254C66.6833 337.244 66.6744 337.235 66.6675 337.228C66.664 337.225 66.6614 337.222 66.6597 337.221C66.6589 337.22 66.6586 337.22 66.6588 337.22C66.6589 337.22 66.6593 337.22 66.6599 337.221C66.6604 337.221 66.6616 337.223 66.6632 337.224C66.6641 337.225 66.6653 337.226 66.6667 337.228C66.6681 337.229 66.6702 337.231 66.6729 337.234C66.6752 337.236 66.6798 337.241 66.6857 337.247C66.6887 337.25 66.6932 337.255 66.6988 337.261C66.7012 337.264 66.7065 337.269 66.7094 337.272C66.7129 337.276 66.721 337.285 66.7255 337.29C66.7313 337.296 66.7449 337.311 66.7527 337.319C66.7638 337.332 66.7919 337.364 66.8088 337.383C66.838 337.418 66.9287 337.534 66.988 337.617C67.1938 337.96 66.8244 341.251 64.0413 342.287C63.4315 342.121 62.7667 341.759 62.6664 341.683C62.6256 341.65 62.5635 341.598 62.5418 341.579C62.5283 341.567 62.5056 341.547 62.4963 341.538C62.4897 341.532 62.4779 341.521 62.4728 341.517C62.4689 341.513 62.4617 341.506 62.4585 341.503C62.4559 341.501 62.451 341.496 62.4488 341.494C62.4437 341.489 62.4395 341.485 62.4367 341.482C62.4312 341.477 62.4268 341.473 62.4246 341.47C62.4221 341.468 62.42 341.466 62.4187 341.465C62.4173 341.463 62.4162 341.462 62.4154 341.461C62.4139 341.46 62.4128 341.459 62.4124 341.458C62.4116 341.458 62.4114 341.457 62.4124 341.458C62.4143 341.46 62.4179 341.464 62.4238 341.47C62.4295 341.475 62.4369 341.483 62.4464 341.492L66.6891 337.25C66.6791 337.24 66.6708 337.232 66.664 337.225C66.6573 337.218 66.6515 337.212 66.6467 337.207C66.6444 337.205 66.6416 337.202 66.6387 337.2C66.6373 337.198 66.6353 337.196 66.6331 337.194C66.632 337.193 66.6305 337.191 66.6288 337.19C66.6273 337.188 66.625 337.186 66.6222 337.183C66.6198 337.181 66.6153 337.176 66.6096 337.171C66.6067 337.168 66.6024 337.164 66.5973 337.159C66.595 337.157 66.5902 337.152 66.5875 337.15C66.5843 337.147 66.5771 337.14 66.5731 337.136C66.568 337.131 66.5563 337.121 66.5496 337.114C66.5403 337.106 66.5176 337.086 66.5041 337.074C66.4824 337.055 66.4202 337.003 66.3794 336.97C66.2791 336.894 65.6144 336.532 65.0046 336.365C62.2215 337.402 61.8521 340.693 62.0579 341.036C62.1172 341.119 62.2078 341.234 62.2371 341.269C62.254 341.289 62.2821 341.321 62.2932 341.333C62.301 341.342 62.3146 341.357 62.3205 341.363C62.325 341.368 62.333 341.377 62.3366 341.381C62.3395 341.384 62.3448 341.389 62.3473 341.392C62.3529 341.398 62.3575 341.403 62.3605 341.406C62.3665 341.412 62.3713 341.417 62.3738 341.42C62.3766 341.422 62.379 341.425 62.3806 341.426C62.3823 341.428 62.3837 341.43 62.3849 341.431C62.3871 341.433 62.389 341.435 62.3904 341.436C62.3918 341.438 62.3931 341.439 62.3942 341.44C62.3965 341.443 62.3986 341.445 62.4006 341.447C62.4045 341.451 62.4088 341.455 62.4132 341.459C62.422 341.468 62.4324 341.479 62.4426 341.489C62.4528 341.499 62.4632 341.51 62.472 341.518C62.4764 341.523 62.4807 341.527 62.4847 341.531C62.4866 341.533 62.4888 341.535 62.491 341.537C62.4922 341.539 62.4935 341.54 62.4949 341.541C62.4963 341.543 62.4982 341.545 62.5005 341.547C62.5016 341.548 62.5031 341.549 62.5048 341.551C62.5065 341.553 62.5089 341.555 62.5118 341.558C62.5143 341.56 62.5193 341.565 62.5255 341.571C62.5286 341.574 62.5334 341.579 62.5393 341.585C62.5418 341.587 62.5474 341.592 62.5505 341.595C62.5543 341.599 62.5629 341.607 62.5678 341.611C62.5741 341.617 62.5889 341.631 62.5976 341.639C62.6099 341.65 62.6418 341.678 62.6614 341.695C62.6961 341.724 62.8112 341.815 62.8931 341.875C63.2337 342.081 66.522 341.73 67.5768 338.956C67.4127 338.34 67.051 337.669 66.9755 337.568C66.9428 337.527 66.8908 337.465 66.8719 337.443C66.86 337.429 66.8396 337.406 66.8312 337.397C66.825 337.39 66.8142 337.378 66.8094 337.373C66.8057 337.369 66.7989 337.362 66.7959 337.359C66.7934 337.356 66.7888 337.351 66.7867 337.349C66.7817 337.344 66.7776 337.34 66.7748 337.337C66.7694 337.331 66.765 337.327 66.7626 337.324C66.7599 337.321 66.7577 337.319 66.7561 337.317C66.7545 337.316 66.753 337.314 66.7519 337.313C66.7497 337.311 66.7478 337.309 66.7464 337.308C66.7435 337.305 66.7408 337.302 66.7384 337.3C66.7337 337.295 66.7279 337.289 66.7212 337.282C66.7144 337.275 66.7062 337.267 66.6962 337.257L62.4392 341.485ZM34.0719 305.553C42.1099 318.634 51.648 330.694 62.4464 341.492L66.6891 337.25C56.2206 326.781 46.9748 315.091 39.184 302.412L34.0719 305.553ZM200.332 398.607C246.896 398.607 289.655 382.282 323.187 355.047L319.404 350.389C286.903 376.788 245.469 392.607 200.332 392.607V398.607ZM62.4464 341.492C71.5004 350.546 81.4409 358.714 92.1269 365.855L95.4605 360.866C85.1025 353.945 75.4663 346.027 66.6891 337.25L62.4464 341.492ZM92.1269 365.855C123.088 386.544 160.306 398.607 200.332 398.607V392.607C161.529 392.607 125.466 380.916 95.4605 360.866L92.1269 365.855ZM110.342 261.545C106.687 262.366 103.502 259.057 104.439 255.476L98.6347 253.956C96.548 261.93 103.66 269.196 111.658 267.399L110.342 261.545ZM294.142 223.81L264.352 250.442L268.351 254.915L298.141 228.283L294.142 223.81ZM265.631 255.591C266.506 255.807 267.4 256.011 268.316 256.203L269.55 250.332C268.698 250.152 267.872 249.965 267.072 249.766L265.631 255.591ZM272.538 154.349L269.712 158.291L274.589 161.786L277.414 157.844L272.538 154.349ZM273.088 162.888C273.535 162.741 273.961 162.565 274.305 162.419C274.687 162.257 274.949 162.14 275.235 162.027C275.856 161.782 275.958 161.822 275.827 161.812L276.268 155.829C274.937 155.731 273.734 156.169 273.027 156.448C272.032 156.842 271.782 157.002 271.212 157.189L273.088 162.888ZM269.712 158.291L266.413 162.894L271.289 166.39L274.589 161.786L269.712 158.291ZM230.152 217.778C235.105 229.886 239.669 238.333 245.201 244.257C250.837 250.294 257.3 253.528 265.631 255.591L267.072 249.766C259.573 247.91 254.244 245.151 249.586 240.162C244.823 235.06 240.59 227.448 235.705 215.506L230.152 217.778ZM256.824 264.142L268.226 255.021L264.477 250.336L253.076 259.457L256.824 264.142ZM232.149 219.539C257.011 226.23 271.098 228.149 296.034 229.044L296.249 223.048C271.735 222.168 258.101 220.31 233.708 213.745L232.149 219.539ZM331.397 190.984C292.908 203.107 270.941 208.424 233.179 212.323L233.795 218.292C272.066 214.339 294.441 208.915 333.2 196.707L331.397 190.984ZM230.723 214.141C230.535 214.587 230.347 215.037 230.158 215.492L235.699 217.792C235.884 217.347 236.068 216.907 236.251 216.473L230.723 214.141ZM267.894 175.961C257.721 179.718 250.531 184.027 244.788 190.173C239.092 196.269 235.011 203.975 230.723 214.141L236.251 216.473C240.466 206.481 244.217 199.573 249.172 194.27C254.081 189.016 260.362 185.139 269.973 181.589L267.894 175.961ZM230.549 218.619C231.644 218.511 232.726 218.402 233.795 218.292L233.179 212.323C232.118 212.433 231.045 212.541 229.959 212.649L230.549 218.619ZM298.409 228.011C298.933 227.406 299.414 226.391 299.144 225.168C298.918 224.144 298.274 223.53 297.955 223.266C297.315 222.737 296.52 222.433 296.01 222.256C294.836 221.848 293.158 221.463 291.281 221.088C287.504 220.331 282.076 219.451 276.587 218.448L275.508 224.35C281.213 225.393 286.364 226.222 290.103 226.971C291.983 227.347 293.296 227.664 294.04 227.923C294.49 228.079 294.385 228.1 294.131 227.889C294.004 227.785 293.476 227.328 293.285 226.46C293.049 225.393 293.483 224.533 293.874 224.082L298.409 228.011ZM276.587 218.448C268.366 216.946 259.871 215.141 254.556 212.875L252.203 218.394C258.232 220.965 267.388 222.866 275.508 224.35L276.587 218.448ZM330.955 191.163C325.894 193.698 311.078 200.409 281.314 207.141L282.637 212.993C312.835 206.164 328.113 199.296 333.642 196.528L330.955 191.163ZM281.314 207.141C273.033 209.014 263.594 210.888 252.886 212.675L253.873 218.593C264.689 216.789 274.24 214.892 282.637 212.993L281.314 207.141ZM278.129 219.239C276.945 218.098 276.381 217.34 276.155 216.864C276.058 216.659 276.067 216.595 276.069 216.638C276.071 216.702 276.051 216.752 276.055 216.745C276.107 216.639 276.425 216.168 277.677 215.398C278.877 214.661 280.63 213.83 283.083 212.855L280.868 207.279C278.299 208.3 276.172 209.28 274.535 210.287C272.951 211.26 271.475 212.466 270.673 214.091C269.762 215.938 269.962 217.808 270.736 219.438C271.438 220.916 272.642 222.283 273.965 223.559L278.129 219.239ZM217.351 174.891C217.351 185.387 208.843 193.895 198.351 193.895V199.895C212.158 199.895 223.351 188.7 223.351 174.891H217.351ZM195.489 199.478C199.644 205.181 205.835 209.48 212.12 210.912L213.453 205.062C208.751 203.991 203.747 200.624 200.338 195.945L195.489 199.478ZM214.844 165.45C216.438 168.228 217.351 171.449 217.351 174.891H223.351C223.351 170.374 222.15 166.127 220.049 162.464L214.844 165.45ZM220.175 159.708C219.753 159.617 219.335 159.536 218.92 159.465L217.91 165.379C218.235 165.434 218.564 165.498 218.898 165.571L220.175 159.708ZM230.254 215.634C232.949 216.952 232.949 216.953 232.949 216.953C232.949 216.952 232.949 216.952 232.949 216.952C232.95 216.951 232.95 216.95 232.951 216.948C232.953 216.944 232.956 216.938 232.96 216.93C232.968 216.914 232.98 216.889 232.997 216.855C233.03 216.789 233.08 216.688 233.146 216.555C233.278 216.288 233.476 215.894 233.734 215.385C234.25 214.367 235.007 212.893 235.966 211.078C237.887 207.448 240.613 202.464 243.838 197.049C250.351 186.112 258.676 173.802 266.36 167.13L262.427 162.599C253.941 169.967 245.197 183.041 238.683 193.979C235.394 199.502 232.617 204.578 230.663 208.273C229.685 210.121 228.912 211.627 228.382 212.672C228.117 213.195 227.913 213.603 227.774 213.882C227.705 214.021 227.652 214.128 227.616 214.201C227.598 214.238 227.584 214.265 227.575 214.285C227.57 214.294 227.566 214.302 227.564 214.307C227.562 214.309 227.561 214.311 227.561 214.313C227.56 214.314 227.56 214.314 227.56 214.315C227.56 214.315 227.559 214.316 230.254 215.634ZM264.27 161.867C254.995 162.249 233.84 162.683 220.175 159.708L218.898 165.571C233.426 168.734 255.327 168.241 264.517 167.862L264.27 161.867ZM271.212 157.189C268.202 158.18 265.238 160.158 262.427 162.599L266.36 167.13C268.877 164.944 271.143 163.528 273.088 162.888L271.212 157.189ZM268.851 164.642C268.658 161.648 268.658 161.648 268.658 161.648C268.658 161.648 268.658 161.648 268.658 161.648C268.658 161.648 268.658 161.648 268.658 161.648C268.658 161.648 268.658 161.648 268.658 161.648C268.657 161.648 268.656 161.648 268.655 161.648C268.652 161.649 268.648 161.649 268.642 161.649C268.631 161.65 268.613 161.651 268.588 161.653C268.54 161.656 268.466 161.66 268.369 161.666C268.174 161.677 267.884 161.694 267.507 161.714C266.753 161.755 265.651 161.81 264.27 161.867L264.517 167.862C265.926 167.804 267.053 167.748 267.83 167.706C268.218 167.685 268.519 167.668 268.724 167.655C268.827 167.649 268.906 167.644 268.959 167.641C268.986 167.64 269.006 167.638 269.021 167.637C269.028 167.637 269.033 167.637 269.037 167.636C269.039 167.636 269.04 167.636 269.042 167.636C269.042 167.636 269.043 167.636 269.043 167.636C269.043 167.636 269.043 167.636 269.043 167.636C269.043 167.636 269.043 167.636 269.044 167.636C269.044 167.636 269.044 167.636 268.851 164.642ZM220.049 162.464C220.418 163.108 220.363 163.864 220.014 164.431C219.64 165.04 218.838 165.537 217.91 165.379L218.92 159.465C217.156 159.163 215.658 160.06 214.903 161.288C214.174 162.475 214.053 164.07 214.844 165.45L220.049 162.464ZM198.351 193.895C195.707 193.895 193.659 196.967 195.489 199.478L200.338 195.945C201.668 197.771 200.146 199.895 198.351 199.895V193.895Z" fill="#121212"/>
<path d="M78.56 354.873C96.9227 307.529 115.715 290.478 136.324 259.263C139.823 253.962 135.782 248.036 130.283 251.214C130.038 251.355 129.793 251.498 129.546 251.643C123.282 255.314 117.761 248.502 120.496 241.776C131.456 214.818 129.065 186.086 114.776 162C113.013 159.028 115.703 155.08 119.055 155.916V155.916C122.012 156.654 124.528 153.673 123.303 150.882L117.117 136.787C115.833 133.863 118.661 130.818 121.672 131.881V131.881C124.783 132.979 127.653 129.704 126.203 126.741C117.336 108.627 112.735 95.7928 109.025 78.2508L95.3685 72.21L111.015 119.15L91.1992 108.846L109.025 143.401L91.1992 132.975L103.643 172.325L107.343 217.729L86.827 277.259L58.2393 337.125L78.56 354.873Z" fill="#121213" fill-opacity="0.1"/>
<path fill-rule="evenodd" clip-rule="evenodd" d="M198.351 189.893C206.635 189.893 213.351 183.177 213.351 174.891C213.351 166.605 206.635 159.888 198.351 159.888C190.066 159.888 183.351 166.605 183.351 174.891C183.351 183.177 190.066 189.893 198.351 189.893ZM203.351 174.891C206.112 174.891 208.351 172.652 208.351 169.89C208.351 167.128 206.112 164.889 203.351 164.889C200.589 164.889 198.351 167.128 198.351 169.89C198.351 172.652 200.589 174.891 203.351 174.891Z" fill="#121212"/>
<path d="M208.351 169.89C208.351 172.652 206.112 174.891 203.351 174.891C200.589 174.891 198.351 172.652 198.351 169.89C198.351 167.128 200.589 164.889 203.351 164.889C206.112 164.889 208.351 167.128 208.351 169.89Z" fill="white"/>
</svg>
